<mxfile host="app.diagrams.net" modified="2022-09-17T12:41:19.774Z" agent="5.0 (Windows NT 10.0; Win64; x64) AppleWebKit/537.36 (KHTML, like Gecko) Chrome/105.0.0.0 Safari/537.36" etag="yn0ITsvpGKhXxPzDU6CO" version="20.3.0" type="github">
  <diagram id="iOiiNKqxKT4wSBpW0y1S" name="PÃ¡gina-1">
    <mxGraphModel dx="1422" dy="762" grid="1" gridSize="10" guides="1" tooltips="1" connect="1" arrows="1" fold="1" page="1" pageScale="1" pageWidth="827" pageHeight="1169" math="0" shadow="0">
      <root>
        <mxCell id="0" />
        <mxCell id="1" parent="0" />
        <mxCell id="kAfgs-jqT4JxFYwGNpp8-3" value="" style="swimlane;startSize=0;" vertex="1" parent="1">
          <mxGeometry x="169" y="150" width="490" height="490" as="geometry" />
        </mxCell>
        <mxCell id="kAfgs-jqT4JxFYwGNpp8-8" value="Dar alta a mobiliario" style="ellipse;whiteSpace=wrap;html=1;" vertex="1" parent="kAfgs-jqT4JxFYwGNpp8-3">
          <mxGeometry x="71" y="30" width="120" height="80" as="geometry" />
        </mxCell>
        <mxCell id="kAfgs-jqT4JxFYwGNpp8-9" value="Reservar alquiler" style="ellipse;whiteSpace=wrap;html=1;" vertex="1" parent="kAfgs-jqT4JxFYwGNpp8-3">
          <mxGeometry x="125" y="340" width="120" height="80" as="geometry" />
        </mxCell>
        <mxCell id="kAfgs-jqT4JxFYwGNpp8-10" value="Pagar con tarjeta" style="ellipse;whiteSpace=wrap;html=1;" vertex="1" parent="kAfgs-jqT4JxFYwGNpp8-3">
          <mxGeometry x="231" y="170" width="120" height="80" as="geometry" />
        </mxCell>
        <mxCell id="kAfgs-jqT4JxFYwGNpp8-12" value="" style="endArrow=classic;html=1;rounded=0;" edge="1" parent="kAfgs-jqT4JxFYwGNpp8-3" source="kAfgs-jqT4JxFYwGNpp8-10" target="kAfgs-jqT4JxFYwGNpp8-9">
          <mxGeometry width="50" height="50" relative="1" as="geometry">
            <mxPoint x="541" y="54.3902439024389" as="sourcePoint" />
            <mxPoint x="398.91671912485685" y="234.59342940262013" as="targetPoint" />
          </mxGeometry>
        </mxCell>
        <mxCell id="kAfgs-jqT4JxFYwGNpp8-13" value="&amp;lt;extends&amp;gt;&amp;nbsp;" style="edgeLabel;html=1;align=center;verticalAlign=middle;resizable=0;points=[];" vertex="1" connectable="0" parent="kAfgs-jqT4JxFYwGNpp8-12">
          <mxGeometry x="0.1966" y="1" relative="1" as="geometry">
            <mxPoint as="offset" />
          </mxGeometry>
        </mxCell>
        <mxCell id="kAfgs-jqT4JxFYwGNpp8-5" value="Encargado&lt;br&gt;" style="shape=umlActor;verticalLabelPosition=bottom;verticalAlign=top;html=1;outlineConnect=0;" vertex="1" parent="1">
          <mxGeometry x="40" y="110" width="70" height="120" as="geometry" />
        </mxCell>
        <mxCell id="kAfgs-jqT4JxFYwGNpp8-6" value="Usuario" style="shape=umlActor;verticalLabelPosition=bottom;verticalAlign=top;html=1;outlineConnect=0;" vertex="1" parent="1">
          <mxGeometry x="50" y="450" width="70" height="120" as="geometry" />
        </mxCell>
        <mxCell id="kAfgs-jqT4JxFYwGNpp8-7" value="Servidor bancario" style="shape=umlActor;verticalLabelPosition=bottom;verticalAlign=top;html=1;outlineConnect=0;" vertex="1" parent="1">
          <mxGeometry x="700" y="90" width="70" height="120" as="geometry" />
        </mxCell>
        <mxCell id="kAfgs-jqT4JxFYwGNpp8-11" value="" style="endArrow=classic;html=1;rounded=0;" edge="1" parent="1" source="kAfgs-jqT4JxFYwGNpp8-7" target="kAfgs-jqT4JxFYwGNpp8-10">
          <mxGeometry width="50" height="50" relative="1" as="geometry">
            <mxPoint x="390" y="420" as="sourcePoint" />
            <mxPoint x="440" y="370" as="targetPoint" />
          </mxGeometry>
        </mxCell>
        <mxCell id="kAfgs-jqT4JxFYwGNpp8-14" value="" style="endArrow=classic;html=1;rounded=0;exitX=0.5;exitY=0.5;exitDx=0;exitDy=0;exitPerimeter=0;" edge="1" parent="1" source="kAfgs-jqT4JxFYwGNpp8-5" target="kAfgs-jqT4JxFYwGNpp8-8">
          <mxGeometry width="50" height="50" relative="1" as="geometry">
            <mxPoint x="390" y="420" as="sourcePoint" />
            <mxPoint x="440" y="370" as="targetPoint" />
          </mxGeometry>
        </mxCell>
        <mxCell id="kAfgs-jqT4JxFYwGNpp8-16" value="" style="endArrow=none;html=1;rounded=0;" edge="1" parent="1" source="kAfgs-jqT4JxFYwGNpp8-6">
          <mxGeometry width="50" height="50" relative="1" as="geometry">
            <mxPoint x="390" y="420" as="sourcePoint" />
            <mxPoint x="410" y="380" as="targetPoint" />
          </mxGeometry>
        </mxCell>
        <mxCell id="kAfgs-jqT4JxFYwGNpp8-17" value="" style="endArrow=classic;html=1;rounded=0;" edge="1" parent="1" source="kAfgs-jqT4JxFYwGNpp8-6" target="kAfgs-jqT4JxFYwGNpp8-9">
          <mxGeometry width="50" height="50" relative="1" as="geometry">
            <mxPoint x="390" y="420" as="sourcePoint" />
            <mxPoint x="440" y="370" as="targetPoint" />
          </mxGeometry>
        </mxCell>
      </root>
    </mxGraphModel>
  </diagram>
</mxfile>
